<svg width="25" height="31" viewBox="0 0 25 31" fill="none" xmlns="http://www.w3.org/2000/svg">
<path d="M22.712 8.25458H18.2743V6.77534C18.2743 5.20607 17.6509 3.70107 16.5412 2.59143C15.4316 1.48179 13.9266 0.858398 12.3573 0.858398C10.7881 0.858398 9.28305 1.48179 8.17341 2.59143C7.06377 3.70107 6.44038 5.20607 6.44038 6.77534V8.25458H2.00267C1.61036 8.25458 1.23411 8.41043 0.956696 8.68784C0.679285 8.96525 0.523438 9.3415 0.523438 9.73381V26.0054C0.523438 27.1824 0.990981 28.3111 1.82321 29.1433C2.65544 29.9756 3.78419 30.4431 4.96114 30.4431H19.7535C20.9305 30.4431 22.0592 29.9756 22.8914 29.1433C23.7237 28.3111 24.1912 27.1824 24.1912 26.0054V9.73381C24.1912 9.3415 24.0354 8.96525 23.758 8.68784C23.4805 8.41043 23.1043 8.25458 22.712 8.25458ZM9.39885 6.77534C9.39885 5.99071 9.71055 5.23821 10.2654 4.68339C10.8202 4.12857 11.5727 3.81687 12.3573 3.81687C13.142 3.81687 13.8945 4.12857 14.4493 4.68339C15.0041 5.23821 15.3158 5.99071 15.3158 6.77534V8.25458H9.39885V6.77534ZM21.2327 26.0054C21.2327 26.3977 21.0769 26.774 20.7995 27.0514C20.5221 27.3288 20.1458 27.4846 19.7535 27.4846H4.96114C4.56883 27.4846 4.19258 27.3288 3.91517 27.0514C3.63776 26.774 3.48191 26.3977 3.48191 26.0054V11.213H6.44038H6.87364C6.87364 11.213 7.5273 11.213 7.91962 11.213C8.31193 11.213 8.96559 11.213 8.96559 11.213H9.39885H15.3158C15.2975 11.213 15.7491 11.213 15.7491 11.213L16.795 11.213C17.1873 11.213 17.841 11.213 17.841 11.213L18.2743 11.213H21.2327V26.0054Z" fill="#CFCB60"/>
</svg>
