<svg width="33" height="40" viewBox="0 0 33 40" fill="none" xmlns="http://www.w3.org/2000/svg">
<path d="M30.543 10H24.543V8C24.543 5.87827 23.7001 3.84344 22.1998 2.34315C20.6995 0.842855 18.6647 0 16.543 0C14.4212 0 12.3864 0.842855 10.8861 2.34315C9.38582 3.84344 8.54297 5.87827 8.54297 8V10H2.54297C2.01254 10 1.50383 10.2107 1.12876 10.5858C0.753683 10.9609 0.542969 11.4696 0.542969 12V34C0.542969 35.5913 1.17511 37.1174 2.30033 38.2426C3.42555 39.3679 4.95167 40 6.54297 40H26.543C28.1343 40 29.6604 39.3679 30.7856 38.2426C31.9108 37.1174 32.543 35.5913 32.543 34V12C32.543 11.4696 32.3323 10.9609 31.9572 10.5858C31.5821 10.2107 31.0734 10 30.543 10ZM12.543 8C12.543 6.93913 12.9644 5.92172 13.7145 5.17157C14.4647 4.42143 15.4821 4 16.543 4C17.6038 4 18.6213 4.42143 19.3714 5.17157C20.1215 5.92172 20.543 6.93913 20.543 8V10H12.543V8ZM28.543 34C28.543 34.5304 28.3323 35.0391 27.9572 35.4142C27.5821 35.7893 27.0734 36 26.543 36H6.54297C6.01254 36 5.50383 35.7893 5.12876 35.4142C4.75368 35.0391 4.54297 34.5304 4.54297 34V14H8.54297H9.12876C9.12876 14 10.0125 14 10.543 14C11.0734 14 11.9572 14 11.9572 14H12.543H20.543C20.5183 14 21.1288 14 21.1288 14L22.543 14C23.0734 14 23.9572 14 23.9572 14L24.543 14H28.543V34Z" fill="black"/>
</svg>
