<svg width="25" height="31" viewBox="0 0 25 31" fill="none" xmlns="http://www.w3.org/2000/svg">
<path d="M22.7139 8.25458H18.2762V6.77534C18.2762 5.20607 17.6528 3.70107 16.5432 2.59143C15.4335 1.48179 13.9285 0.858398 12.3593 0.858398C10.79 0.858398 9.28501 1.48179 8.17537 2.59143C7.06572 3.70107 6.44233 5.20607 6.44233 6.77534V8.25458H2.00463C1.61231 8.25458 1.23606 8.41043 0.958649 8.68784C0.681239 8.96525 0.525391 9.3415 0.525391 9.73381V26.0054C0.525391 27.1824 0.992934 28.3111 1.82517 29.1433C2.6574 29.9756 3.78614 30.4431 4.9631 30.4431H19.7555C20.9324 30.4431 22.0612 29.9756 22.8934 29.1433C23.7256 28.3111 24.1932 27.1824 24.1932 26.0054V9.73381C24.1932 9.3415 24.0373 8.96525 23.7599 8.68784C23.4825 8.41043 23.1062 8.25458 22.7139 8.25458ZM9.40081 6.77534C9.40081 5.99071 9.7125 5.23821 10.2673 4.68339C10.8221 4.12857 11.5746 3.81687 12.3593 3.81687C13.1439 3.81687 13.8964 4.12857 14.4512 4.68339C15.0061 5.23821 15.3177 5.99071 15.3177 6.77534V8.25458H9.40081V6.77534ZM21.2347 26.0054C21.2347 26.3977 21.0788 26.774 20.8014 27.0514C20.524 27.3288 20.1478 27.4846 19.7555 27.4846H4.9631C4.57078 27.4846 4.19453 27.3288 3.91712 27.0514C3.63971 26.774 3.48386 26.3977 3.48386 26.0054V11.213H6.44233H6.87559C6.87559 11.213 7.52925 11.213 7.92157 11.213C8.31389 11.213 8.96755 11.213 8.96755 11.213H9.40081H15.3177C15.2995 11.213 15.751 11.213 15.751 11.213L16.797 11.213C17.1893 11.213 17.843 11.213 17.843 11.213L18.2762 11.213H21.2347V26.0054Z" fill="#ABD5DC"/>
</svg>
