<svg width="106" height="56" viewBox="0 0 106 56" fill="none" xmlns="http://www.w3.org/2000/svg">
<path d="M0.0559376 28.3842C0.0559376 14.6242 6.85594 0.864166 22.1359 0.864166C37.3359 0.864166 44.2159 14.6242 44.2159 28.3842C44.2159 42.1442 37.3359 55.9842 22.1359 55.9842C6.85594 55.9842 0.0559376 42.1442 0.0559376 28.3842ZM32.6159 28.3842C32.6159 18.5442 29.7359 10.9442 22.1359 10.9442C14.4559 10.9442 11.5759 18.5442 11.5759 28.3842C11.5759 38.2242 14.4559 45.9042 22.1359 45.9042C29.7359 45.9042 32.6159 38.2242 32.6159 28.3842ZM49.0253 14.3042C49.0253 6.78417 54.3853 0.864166 62.5453 0.864166C70.7853 0.864166 76.1453 6.78417 76.1453 14.3042C76.1453 21.7442 70.7853 27.4242 62.5453 27.4242C54.3853 27.4242 49.0253 21.7442 49.0253 14.3042ZM63.3453 55.0242H57.3453L91.4253 1.66417H97.5053L63.3453 55.0242ZM68.8653 14.3042C68.8653 9.82417 66.2253 7.18417 62.5453 7.18417C58.9453 7.18417 56.2253 9.82417 56.2253 14.3042C56.2253 18.4642 58.9453 21.1842 62.5453 21.1842C66.2253 21.1842 68.8653 18.4642 68.8653 14.3042ZM78.3853 42.7842C78.3853 35.2642 83.7453 29.3442 91.9053 29.3442C100.065 29.3442 105.505 35.2642 105.505 42.7842C105.505 50.2242 100.065 55.9842 91.9053 55.9842C83.7453 55.9842 78.3853 50.2242 78.3853 42.7842ZM98.3053 42.7842C98.3053 38.3842 95.5853 35.6642 91.9053 35.6642C88.2253 35.6642 85.5853 38.3842 85.5853 42.7842C85.5853 47.1042 88.2253 49.7442 91.9053 49.7442C95.5853 49.7442 98.3053 47.1042 98.3053 42.7842Z" fill="black"/>
</svg>
