<svg width="106" height="56" viewBox="0 0 106 56" fill="none" xmlns="http://www.w3.org/2000/svg">
<path d="M0.22 27.6832C0.22 13.9232 7.02 0.163239 22.3 0.163239C37.5 0.163239 44.38 13.9232 44.38 27.6832C44.38 41.4432 37.5 55.2832 22.3 55.2832C7.02 55.2832 0.22 41.4432 0.22 27.6832ZM32.78 27.6832C32.78 17.8432 29.9 10.2432 22.3 10.2432C14.62 10.2432 11.74 17.8432 11.74 27.6832C11.74 37.5232 14.62 45.2032 22.3 45.2032C29.9 45.2032 32.78 37.5232 32.78 27.6832ZM49.1894 13.6032C49.1894 6.08324 54.5494 0.163239 62.7094 0.163239C70.9494 0.163239 76.3094 6.08324 76.3094 13.6032C76.3094 21.0432 70.9494 26.7232 62.7094 26.7232C54.5494 26.7232 49.1894 21.0432 49.1894 13.6032ZM63.5094 54.3232H57.5094L91.5894 0.963238H97.6694L63.5094 54.3232ZM69.0294 13.6032C69.0294 9.12324 66.3894 6.48324 62.7094 6.48324C59.1094 6.48324 56.3894 9.12324 56.3894 13.6032C56.3894 17.7632 59.1094 20.4832 62.7094 20.4832C66.3894 20.4832 69.0294 17.7632 69.0294 13.6032ZM78.5494 42.0832C78.5494 34.5632 83.9094 28.6432 92.0694 28.6432C100.229 28.6432 105.669 34.5632 105.669 42.0832C105.669 49.5232 100.229 55.2832 92.0694 55.2832C83.9094 55.2832 78.5494 49.5232 78.5494 42.0832ZM98.4694 42.0832C98.4694 37.6832 95.7494 34.9632 92.0694 34.9632C88.3894 34.9632 85.7494 37.6832 85.7494 42.0832C85.7494 46.4032 88.3894 49.0432 92.0694 49.0432C95.7494 49.0432 98.4694 46.4032 98.4694 42.0832Z" fill="#604C70"/>
</svg>
