<svg width="96" height="96" viewBox="0 0 96 96" fill="none" xmlns="http://www.w3.org/2000/svg">
<path d="M47.9998 0.323242C21.7992 0.323242 0.362305 21.7601 0.362305 47.9608C0.362305 74.1614 21.7992 95.5983 47.9998 95.5983C74.2005 95.5983 95.6374 74.1614 95.6374 47.9608C95.6374 21.7601 74.2005 0.323242 47.9998 0.323242ZM36.5668 72.7323C35.5188 72.7323 34.0897 72.3512 32.7558 71.7796L30.0405 78.4488L24.6098 76.5433L25.372 74.6854C31.0885 60.2989 37.6625 43.9116 62.2911 38.4333C62.2911 38.4333 33.7086 38.4333 24.4193 64.8721C24.4193 64.8721 19.4173 59.8702 19.4173 54.1537C19.4173 48.4372 25.1338 36.2896 39.4251 33.4313C43.4743 32.6215 47.9998 32.0022 52.4778 31.2876C63.7202 29.7632 74.534 28.2388 76.5824 24.142C76.5824 24.142 68.0076 72.7323 36.5668 72.7323Z" fill="#604C70"/>
</svg>
