<svg width="96" height="96" viewBox="0 0 96 96" fill="none" xmlns="http://www.w3.org/2000/svg">
<path d="M47.9998 0.429443C21.7992 0.429443 0.362305 21.8663 0.362305 48.067C0.362305 74.2676 21.7992 95.7045 47.9998 95.7045C74.2005 95.7045 95.6374 74.2676 95.6374 48.067C95.6374 21.8663 74.2005 0.429443 47.9998 0.429443ZM36.5668 72.8385C35.5188 72.8385 34.0897 72.4574 32.7558 71.8858L30.0405 78.555L24.6098 76.6495L25.372 74.7916C31.0885 60.4051 37.6625 44.0178 62.2911 38.5395C62.2911 38.5395 33.7086 38.5395 24.4193 64.9783C24.4193 64.9783 19.4173 59.9764 19.4173 54.2599C19.4173 48.5434 25.1338 36.3958 39.4251 33.5375C43.4743 32.7277 47.9998 32.1084 52.4778 31.3938C63.7202 29.8694 74.534 28.345 76.5824 24.2482C76.5824 24.2482 68.0076 72.8385 36.5668 72.8385Z" fill="black"/>
</svg>
