<svg width="71" height="101" viewBox="0 0 71 101" fill="none" xmlns="http://www.w3.org/2000/svg">
<path d="M35.2744 48.0747C31.9335 48.0747 28.7294 46.7476 26.367 44.3852C24.0046 42.0228 22.6775 38.8187 22.6775 35.4778C22.6775 32.1369 24.0046 28.9328 26.367 26.5704C28.7294 24.208 31.9335 22.8808 35.2744 22.8808C38.6153 22.8808 41.8194 24.208 44.1818 26.5704C46.5442 28.9328 47.8714 32.1369 47.8714 35.4778C47.8714 37.132 47.5455 38.7701 46.9125 40.2984C46.2794 41.8268 45.3515 43.2154 44.1818 44.3852C43.0121 45.5549 41.6234 46.4828 40.0951 47.1159C38.5667 47.7489 36.9287 48.0747 35.2744 48.0747ZM35.2744 0.206299C25.9198 0.206299 16.9484 3.92239 10.3337 10.5371C3.71902 17.1518 0.00292969 26.1232 0.00292969 35.4778C0.00292969 61.9314 35.2744 100.982 35.2744 100.982C35.2744 100.982 70.5459 61.9314 70.5459 35.4778C70.5459 26.1232 66.8298 17.1518 60.2151 10.5371C53.6004 3.92239 44.629 0.206299 35.2744 0.206299Z" fill="black"/>
</svg>
