<svg width="72" height="102" viewBox="0 0 72 102" fill="none" xmlns="http://www.w3.org/2000/svg">
<path d="M36 48.1917C32.6591 48.1917 29.455 46.8645 27.0926 44.5021C24.7302 42.1397 23.403 38.9356 23.403 35.5947C23.403 32.2538 24.7302 29.0497 27.0926 26.6873C29.455 24.3249 32.6591 22.9978 36 22.9978C39.3409 22.9978 42.545 24.3249 44.9074 26.6873C47.2698 29.0497 48.597 32.2538 48.597 35.5947C48.597 37.249 48.2711 38.887 47.6381 40.4154C47.005 41.9437 46.0771 43.3324 44.9074 44.5021C43.7377 45.6719 42.349 46.5997 40.8206 47.2328C39.2923 47.8659 37.6543 48.1917 36 48.1917ZM36 0.323242C26.6454 0.323242 17.674 4.03933 11.0593 10.654C4.44461 17.2687 0.728516 26.2401 0.728516 35.5947C0.728516 62.0483 36 101.099 36 101.099C36 101.099 71.2715 62.0483 71.2715 35.5947C71.2715 26.2401 67.5554 17.2687 60.9407 10.654C54.326 4.03933 45.3546 0.323242 36 0.323242Z" fill="#604C70"/>
</svg>
