<svg width="42" height="42" viewBox="0 0 42 42" fill="none" xmlns="http://www.w3.org/2000/svg">
<path d="M28.083 20.7822C28.083 16.972 25.0396 13.9239 21.2352 13.9239C17.4309 13.9239 14.3874 16.972 14.3874 20.7822C14.3874 24.5924 17.4309 27.6406 21.2352 27.6406C25.0396 27.6406 28.083 24.5924 28.083 20.7822ZM31.6338 20.7822C31.6338 26.6245 27.0686 31.1968 21.2352 31.1968C15.4019 31.1968 10.8366 26.6245 10.8366 20.7822C10.8366 14.9399 15.4019 10.3677 21.2352 10.3677C27.0686 10.3677 31.6338 14.9399 31.6338 20.7822ZM34.4236 9.85966C34.4236 11.3837 33.4091 12.3998 31.8874 12.3998C30.3657 12.3998 29.3512 11.3837 29.3512 9.85966C29.3512 8.33559 30.3657 7.31953 31.8874 7.31953C33.4091 7.31953 34.4236 8.5896 34.4236 9.85966ZM21.2352 4.01736C20.7761 4.01736 20.2419 4.01158 19.657 4.00525C16.3652 3.96963 11.4685 3.91663 9.31489 4.7794C7.53953 5.54144 6.01779 7.06552 5.51054 8.84361C4.64909 11.0005 4.70201 15.9047 4.73758 19.2016C4.7439 19.7874 4.74967 20.3224 4.74967 20.7822C4.74967 21.2421 4.7439 21.7771 4.73758 22.3628C4.70201 25.6597 4.64909 30.5639 5.51054 32.7208C6.01779 34.4989 7.53953 36.023 9.31489 36.531C11.4776 37.3974 16.591 37.3403 19.7801 37.3047C20.3309 37.2986 20.8243 37.2931 21.2352 37.2931C21.6461 37.2931 22.1395 37.2986 22.6903 37.3047C25.8794 37.3403 30.9928 37.3974 33.1555 36.531C34.9309 35.769 36.199 34.4989 36.9599 32.7208C37.8242 30.3404 37.7681 25.3789 37.7325 22.2342C37.7263 21.6876 37.7207 21.1959 37.7207 20.7822C37.7207 20.3707 37.7262 19.8766 37.7324 19.3249C37.7679 16.1309 37.825 11.0096 36.9599 8.84361C36.4526 7.06552 34.9309 5.54144 33.1555 5.03342C30.9494 3.92865 25.8647 3.97706 22.5755 4.00838C22.0833 4.01306 21.6313 4.01736 21.2352 4.01736ZM41.5251 20.7822V29.1647C41.5251 32.2128 40.5106 35.261 38.228 37.8011C35.9454 40.0872 32.9019 41.1033 29.6048 41.1033H12.8656C9.82214 41.1033 6.77866 40.0872 4.24242 37.8011C2.21343 35.515 0.945312 32.4668 0.945312 29.1647V20.7822V12.3998C0.945312 9.09763 2.21343 6.04947 4.24242 3.76335C6.77866 1.73125 9.82214 0.461182 12.8656 0.461182H29.6048C32.6483 0.461182 35.6918 1.47723 38.228 3.76335C40.257 6.04947 41.5251 9.09763 41.5251 12.3998V20.7822Z" fill="black"/>
<path d="M28.083 20.7822C28.083 16.972 25.0396 13.9239 21.2352 13.9239C17.4309 13.9239 14.3874 16.972 14.3874 20.7822C14.3874 24.5924 17.4309 27.6406 21.2352 27.6406C25.0396 27.6406 28.083 24.5924 28.083 20.7822ZM31.6338 20.7822C31.6338 26.6245 27.0686 31.1968 21.2352 31.1968C15.4019 31.1968 10.8366 26.6245 10.8366 20.7822C10.8366 14.9399 15.4019 10.3677 21.2352 10.3677C27.0686 10.3677 31.6338 14.9399 31.6338 20.7822ZM34.4236 9.85966C34.4236 11.3837 33.4091 12.3998 31.8874 12.3998C30.3657 12.3998 29.3512 11.3837 29.3512 9.85966C29.3512 8.33559 30.3657 7.31953 31.8874 7.31953C33.4091 7.31953 34.4236 8.5896 34.4236 9.85966ZM21.2352 4.01736C20.7761 4.01736 20.2419 4.01158 19.657 4.00525C16.3652 3.96963 11.4685 3.91663 9.31489 4.7794C7.53953 5.54144 6.01779 7.06552 5.51054 8.84361C4.64909 11.0005 4.70201 15.9047 4.73758 19.2016C4.7439 19.7874 4.74967 20.3224 4.74967 20.7822C4.74967 21.2421 4.7439 21.7771 4.73758 22.3628C4.70201 25.6597 4.64909 30.5639 5.51054 32.7208C6.01779 34.4989 7.53953 36.023 9.31489 36.531C11.4776 37.3974 16.591 37.3403 19.7801 37.3047C20.3309 37.2986 20.8243 37.2931 21.2352 37.2931C21.6461 37.2931 22.1395 37.2986 22.6903 37.3047C25.8794 37.3403 30.9928 37.3974 33.1555 36.531C34.9309 35.769 36.199 34.4989 36.9599 32.7208C37.8242 30.3404 37.7681 25.3789 37.7325 22.2342C37.7263 21.6876 37.7207 21.1959 37.7207 20.7822C37.7207 20.3707 37.7262 19.8766 37.7324 19.3249C37.7679 16.1309 37.825 11.0096 36.9599 8.84361C36.4526 7.06552 34.9309 5.54144 33.1555 5.03342C30.9494 3.92865 25.8647 3.97706 22.5755 4.00838C22.0833 4.01306 21.6313 4.01736 21.2352 4.01736ZM41.5251 20.7822V29.1647C41.5251 32.2128 40.5106 35.261 38.228 37.8011C35.9454 40.0872 32.9019 41.1033 29.6048 41.1033H12.8656C9.82214 41.1033 6.77866 40.0872 4.24242 37.8011C2.21343 35.515 0.945312 32.4668 0.945312 29.1647V20.7822V12.3998C0.945312 9.09763 2.21343 6.04947 4.24242 3.76335C6.77866 1.73125 9.82214 0.461182 12.8656 0.461182H29.6048C32.6483 0.461182 35.6918 1.47723 38.228 3.76335C40.257 6.04947 41.5251 9.09763 41.5251 12.3998V20.7822Z" stroke="black"/>
</svg>
