<svg width="42" height="42" viewBox="0 0 42 42" fill="none" xmlns="http://www.w3.org/2000/svg">
<path d="M0.292969 20.98C0.292969 27.1285 3.08478 32.6687 7.45297 36.3886V36.4073L7.54948 36.4823L7.55171 36.4841C7.91042 36.7631 8.27452 37.0463 8.6796 37.3298L8.68681 37.3349L8.69435 37.3394C8.81545 37.412 8.91138 37.4935 9.02917 37.5936C9.08772 37.6433 9.15167 37.6976 9.2268 37.7577L9.23458 37.7639L9.24283 37.7695C12.5907 40.0356 16.5402 41.2478 20.5828 41.25H20.5831C24.6236 41.2478 28.571 40.0369 31.9176 37.7732C32.0297 37.7054 32.1288 37.6287 32.2159 37.5612L32.216 37.5611C32.308 37.4899 32.3872 37.4286 32.4735 37.3757L32.485 37.3687L32.4956 37.3605C32.6654 37.2296 32.8447 37.0978 33.0271 36.9637L33.0511 36.9461C33.2407 36.8066 33.4334 36.6647 33.6165 36.5223L33.6287 36.5128L33.6333 36.5082C33.6365 36.5063 33.6435 36.5018 33.6567 36.493C33.6715 36.4831 33.7093 36.4573 33.7409 36.4121C33.7453 36.4059 33.7494 36.3995 33.7531 36.3931C38.0176 32.6324 40.793 27.1105 40.793 20.98C40.793 9.81168 31.7208 0.75 20.543 0.75C9.36514 0.75 0.292969 9.81168 0.292969 20.98ZM11.9592 31.9755L11.9593 31.9753C12.3887 31.2337 12.894 30.5736 13.514 29.9924L13.514 29.9925L13.5197 29.9868C14.1041 29.4024 14.8073 28.8576 15.5108 28.4274C16.2488 28.0004 17.0275 27.6886 17.8885 27.4538C18.7542 27.222 19.6466 27.1047 20.5429 27.105L20.5449 27.105C23.2057 27.0849 25.769 28.1053 27.6879 29.9485C28.5827 30.8437 29.2837 31.8939 29.7912 33.1012C30.0457 33.7563 30.2326 34.4455 30.3517 35.1693C27.4681 37.1582 24.048 38.2269 20.5426 38.2325C16.8925 38.2324 13.5483 37.0851 10.7724 35.1681C10.8133 34.9168 10.8767 34.6632 10.9437 34.3954L10.9448 34.3911C11.1782 33.5458 11.5191 32.734 11.9592 31.9755ZM14.6552 19.89L14.6553 19.89L14.6522 19.8826C14.3145 19.1077 14.1444 18.2703 14.153 17.425V17.4225C14.153 16.5747 14.3076 15.7305 14.6509 14.9676C14.9998 14.1924 15.4632 13.5008 16.0397 12.9243C16.6158 12.3482 17.3097 11.8871 18.0856 11.538C18.8484 11.1947 19.6926 11.04 20.543 11.04C21.4325 11.04 22.2369 11.1944 23.0004 11.538C23.7757 11.8869 24.4698 12.3503 25.0462 12.9243C25.6225 13.5006 26.086 14.1946 26.435 14.9676C26.7783 15.7305 26.933 16.5747 26.933 17.4225C26.933 18.3121 26.7786 19.1163 26.4351 19.8771L26.4339 19.8798C26.101 20.6405 25.6306 21.3332 25.0463 21.9232C24.4568 22.5059 23.765 22.9751 23.0055 23.3073C21.4146 23.9588 19.6313 23.9588 18.0405 23.3073C17.2807 22.975 16.5886 22.5055 15.999 21.9225C15.4163 21.3431 14.959 20.6529 14.6552 19.89ZM37.813 20.9797C37.808 25.3671 36.122 29.5799 33.1117 32.7565C32.7138 31.5605 32.1472 30.427 31.4287 29.3904C30.6654 28.2823 29.7282 27.3047 28.6534 26.4953L28.6533 26.4952C27.9494 25.9655 27.1947 25.5075 26.4005 25.1279C26.6973 24.904 26.9777 24.6589 27.2396 24.3944C27.8497 23.7919 28.3856 23.1186 28.8358 22.3887L28.8363 22.3879C29.7493 20.8943 30.2198 19.1722 30.193 17.4218C30.206 16.1276 29.9543 14.8443 29.4535 13.6508L29.4527 13.6489C28.9588 12.4985 28.2479 11.454 27.359 10.5725L27.3577 10.5712C26.4685 9.70211 25.425 9.00646 24.2808 8.51993L24.2796 8.51941C23.0841 8.01872 21.7989 7.76794 20.5029 7.78249C19.2069 7.76875 17.9218 8.02034 16.7266 8.5218C15.5679 9.00326 14.5192 9.71545 13.6444 10.615C12.7705 11.5 12.074 12.544 11.5925 13.6907L11.5924 13.6908C11.0914 14.8849 10.8397 16.1689 10.853 17.4638C10.8531 18.3658 10.9761 19.2283 11.2231 20.0503C11.4679 20.9067 11.7954 21.6861 12.2471 22.4236C12.6635 23.1716 13.2413 23.8293 13.8462 24.4343C14.1153 24.7033 14.4057 24.9502 14.7174 25.175C13.9219 25.5629 13.1686 26.0329 12.4698 26.5774C11.4105 27.3924 10.4743 28.367 9.70112 29.425L9.70109 29.425L9.69838 29.4288C8.97331 30.4613 8.40574 31.5953 8.01388 32.7936C5.07748 29.6744 3.27297 25.5476 3.27297 20.98C3.27297 11.4883 11.0408 3.7275 20.543 3.7275C30.045 3.7275 37.8128 11.4881 37.813 20.9797Z" fill="black" stroke="black" stroke-width="0.5"/>
</svg>
