<svg width="188" height="35" viewBox="0 0 188 35" fill="none" xmlns="http://www.w3.org/2000/svg">
<g clip-path="url(#clip0_22_1420)">
<path d="M0 34.0222V0.977844H6.82672V28.0296H18.6497V34.0267H0V34.0222Z" fill="black"/>
<path d="M24.375 34.0222V0.977844H31.2017V34.0267H24.375V34.0222Z" fill="black"/>
<path d="M37.6621 17.5247C37.6621 6.74164 43.295 0 52.3236 0C59.4731 0 64.5578 4.69627 65.6543 12.3619L59.3316 13.5685C58.5535 8.82737 55.989 5.99257 52.3236 5.99257C47.5131 5.99257 44.4888 10.3614 44.4888 17.5202C44.4888 24.679 47.8801 28.9536 53.2875 28.9536C57.6382 28.9536 60.8924 25.6075 61.6706 20.1217L68.0861 21.1893C67.0338 29.6489 61.2594 34.9955 53.2433 34.9955C43.6222 34.9955 37.6665 28.2539 37.6665 17.5202L37.6621 17.5247Z" fill="black"/>
<path d="M71.6057 11.8775C71.6057 8.70625 73.8739 6.43213 76.9468 6.43213C80.0197 6.43213 82.2879 8.70625 82.2879 11.8775C82.2879 15.0487 80.0462 17.269 76.9468 17.269C73.8474 17.269 71.5792 14.9949 71.6057 11.8775ZM79.9401 11.8775C79.9401 10.1147 78.6844 8.8139 76.9733 8.8139C75.2622 8.8139 73.9535 10.1147 73.9535 11.8775C73.9535 13.6403 75.2357 14.8827 76.9733 14.8827C78.711 14.8827 79.9401 13.6358 79.9401 11.8775ZM77.3757 26.6705L76.5489 26.0739L90.3571 6.21234L91.2369 6.80891L77.3757 26.6705ZM85.2282 21.3597C85.2547 18.1885 87.4964 15.9144 90.5693 15.9144C93.6422 15.9144 95.9104 18.1885 95.9104 21.3597C95.9104 24.5309 93.6687 26.7512 90.5693 26.7512C87.4699 26.7512 85.2282 24.4771 85.2282 21.3597ZM93.5626 21.3597C93.5626 19.5969 92.3069 18.2962 90.5958 18.2962C88.8847 18.2962 87.576 19.5969 87.576 21.3597C87.576 23.1225 88.8317 24.365 90.5958 24.365C92.36 24.365 93.5626 23.118 93.5626 21.3597Z" fill="black"/>
<path d="M116.983 30.0705L115.564 24.4009C115.06 22.4497 113.733 21.0547 111.991 21.0547H107.915V34.0222H101.088V0.977844H114.419C121.656 0.977844 126.242 4.92953 126.242 11.1553C126.242 15.3403 123.677 18.7761 119.278 19.8482V19.893C120.971 20.6376 121.798 22.0774 122.258 23.9837L123.31 28.3526C123.54 29.4201 123.995 30.1198 124.822 30.1198C125.463 30.1198 126.153 29.6534 126.794 28.7697L128.488 32.1607C127.02 33.8338 124.822 34.8116 122.576 34.8116C119.552 34.8116 117.673 32.9053 116.987 30.0705H116.983ZM107.91 16.1297H113.866C117.208 16.1297 119.41 14.2234 119.41 11.2495C119.41 8.27568 117.213 6.27517 113.866 6.27517H107.91V16.1297Z" fill="black"/>
<path d="M133.705 34.0222V0.977844H142.137L153.774 25.751H153.867V0.977844H160.282V34.0267H151.806L140.169 9.3477H140.076V34.0267H133.71L133.705 34.0222Z" fill="black"/>
<path d="M167.746 34.0222V0.977844H187.541V6.64746H174.347V14.5508H185.71V19.5701H174.347V28.4019H188.001V34.0267H167.751L167.746 34.0222Z" fill="black"/>
</g>
<defs>
<clipPath id="clip0_22_1420">
<rect width="188" height="35" fill="white"/>
</clipPath>
</defs>
</svg>
