<svg width="30" height="35" viewBox="0 0 30 35" fill="none" xmlns="http://www.w3.org/2000/svg">
<path d="M23.8165 5.79545C22.5234 4.3193 21.8109 2.42357 21.8114 0.461182H15.9664V23.9168C15.9213 25.1861 15.3854 26.3884 14.4716 27.2705C13.5578 28.1526 12.3373 28.6456 11.0672 28.6458C8.38114 28.6458 6.14907 26.4516 6.14907 23.7277C6.14907 20.4742 9.2891 18.034 12.5237 19.0366V13.0591C5.99775 12.189 0.285156 17.2585 0.285156 23.7277C0.285156 30.0267 5.50593 34.5097 11.0483 34.5097C16.9879 34.5097 21.8114 29.6862 21.8114 23.7277V11.8296C24.1816 13.5318 27.0272 14.445 29.9452 14.44V8.595C29.9452 8.595 26.389 8.76524 23.8165 5.79545Z" fill="black"/>
</svg>
